<?xml version="1.0" encoding="UTF-8"?>
<svg version="1.1" xmlns="http://www.w3.org/2000/svg" width="1181" height="1772">
<path d="M0 0 C1.78108737 -0.00067609 3.56217466 -0.00164863 5.34326172 -0.00289917 C9.05111583 -0.00436182 12.75894562 -0.00226819 16.46679688 0.00244141 C21.17648251 0.00813779 25.88611112 0.00485103 30.59579468 -0.00113106 C34.26619889 -0.00477567 37.93658998 -0.00358033 41.60699463 -0.00100327 C43.34181729 -0.00034474 45.07664122 -0.00112398 46.8114624 -0.00348282 C56.23805408 -0.01349303 65.56505384 0.1934133 74.96884155 0.89923096 C78.5847743 1.16683956 82.17627666 1.30109795 85.80078125 1.37890625 C87.06083984 1.41177734 88.32089844 1.44464844 89.61914062 1.47851562 C92.18414338 1.54018065 94.74925636 1.59740671 97.31445312 1.65039062 C111.97904896 2.04999144 124.74618401 4.34893516 136.125 14.1328125 C136.72054687 14.61105469 137.31609375 15.08929688 137.9296875 15.58203125 C151.76983274 27.79211494 154.60965454 48.8433123 156.125 66.1328125 C156.41781465 71.32519055 156.56854328 76.51885317 156.69335938 81.7175293 C156.72315211 82.87585268 156.72315211 82.87585268 156.75354671 84.05757654 C157.36027088 108.12621014 157.33223046 132.20577666 157.39032075 156.28051116 C157.40768646 163.36619332 157.43102041 170.45185289 157.45473462 177.5375162 C157.49716659 190.23862514 157.5363363 202.93974159 157.57275391 215.64086914 C157.57491671 216.3947785 157.57707951 217.14868786 157.57930785 217.92544296 C157.59242361 222.50307053 157.60546492 227.08069831 157.61848927 231.65832615 C157.63793274 238.48811954 157.65750203 245.31791255 157.67724609 252.14770508 C157.67940496 252.89488856 157.68156383 253.64207205 157.68378812 254.41189746 C157.72042657 267.05592785 157.76041372 279.6999458 157.80254889 292.34395903 C157.82585282 299.37967455 157.84750647 306.4153869 157.86463928 313.45112038 C157.93335408 341.46512096 158.090375 369.47302132 158.58398438 397.4831543 C158.60342071 398.61546844 158.62285704 399.74778259 158.64288235 400.91440928 C159.13746654 429.08676141 160.08913263 457.28567954 162.37915039 485.37524414 C162.86814169 491.39892046 163.26084452 497.41735257 163.5546875 503.453125 C164.38677104 520.35230923 165.78673419 536.93113184 168.12109375 553.69921875 C169.12823932 560.95388819 169.89280076 568.22111895 170.625 575.5078125 C174.47338275 612.25217102 183.03149502 647.59150143 197.15014648 681.76000977 C199.23939403 686.84525818 201.25940617 691.95869555 203.29296875 697.06640625 C206.23688472 704.2964834 209.53659745 711.33618353 212.91479492 718.37084961 C215.09594208 722.91834012 217.16579663 727.48539986 219.125 732.1328125 C219.74659049 733.53016749 220.3711277 734.92621949 221 736.3203125 C222.54383277 739.77500243 224.00388294 743.25602658 225.4375 746.7578125 C227.32435017 751.31386534 229.33548675 755.79780175 231.4375 760.2578125 C239.04134667 776.42539738 246.53152922 792.64506079 251.421875 809.875 C252.14721919 812.20416079 253.04204467 814.38998058 254 816.6328125 C260.4253025 832.52440037 262.88390584 849.23504989 265.125 866.1328125 C265.23030029 866.87950195 265.33560059 867.62619141 265.4440918 868.39550781 C270.84950105 910.33251519 259.72423417 955.25598165 234.125 989.1328125 C231.21847964 992.88467631 228.21696928 996.53257429 225.125 1000.1328125 C224.02671875 1001.41671875 224.02671875 1001.41671875 222.90625 1002.7265625 C199.88140724 1028.99434086 168.06202836 1043.44854931 135.125 1053.1328125 C133.77727562 1053.5375336 132.42961245 1053.94245865 131.08203125 1054.34765625 C118.69777187 1057.99008548 106.24304107 1060.55045571 93.5 1062.5703125 C83.36250425 1064.20842067 73.30095874 1066.03997797 63.26953125 1068.23828125 C59.3398621 1069.09911786 55.3949644 1069.84673116 51.4375 1070.5703125 C-13.10678679 1082.59200735 -70.71190603 1108.02106293 -124.875 1145.1328125 C-126.17184462 1146.01566963 -127.46872191 1146.89847877 -128.765625 1147.78125 C-135.62490502 1152.46269851 -142.42808274 1157.20357597 -149.12109375 1162.12109375 C-151.66803255 1163.98162351 -154.23376617 1165.81337067 -156.80688477 1167.63745117 C-163.13532305 1172.12658532 -169.37152524 1176.72452984 -175.56787109 1181.39404297 C-182.34897691 1186.5012804 -189.18316455 1191.53491315 -196.0234375 1196.5625 C-199.22223543 1198.91376416 -202.41466735 1201.27325494 -205.6015625 1203.640625 C-227.98945139 1220.25391529 -250.8129793 1236.12949805 -274.99121094 1250.04248047 C-276.78625589 1251.08144765 -278.57061939 1252.13629852 -280.3515625 1253.19921875 C-281.39054687 1253.81667969 -282.42953125 1254.43414063 -283.5 1255.0703125 C-284.81871094 1255.85728516 -284.81871094 1255.85728516 -286.1640625 1256.66015625 C-289.31810989 1258.37352205 -292.56543171 1259.75745462 -295.875 1261.1328125 C-297.49426289 1261.82632218 -299.11269495 1262.52177373 -300.73046875 1263.21875 C-304.38625403 1264.78931546 -308.04409093 1266.35498808 -311.703125 1267.91796875 C-314.61584652 1269.16231438 -317.52203386 1270.41713685 -320.421875 1271.69140625 C-326.68977665 1274.41032034 -332.98486058 1276.43819491 -339.578125 1278.23046875 C-342.33245886 1278.98432079 -345.03442619 1279.81594044 -347.75 1280.6953125 C-353.89998082 1282.55343478 -360.2303541 1283.68529523 -366.56225586 1284.73608398 C-368.17781563 1285.01321738 -369.78800952 1285.32270927 -371.39282227 1285.65649414 C-382.10676779 1287.66777309 -392.88938689 1287.46940245 -403.75415039 1287.44848633 C-407.1417753 1287.44535477 -410.52849992 1287.46874474 -413.91601562 1287.49414062 C-428.78772309 1287.53622468 -443.17279651 1286.31754931 -457.875 1284.1328125 C-459.23535579 1283.94228947 -460.59592421 1283.75327272 -461.95678711 1283.56640625 C-469.37468972 1282.53078051 -476.61069278 1280.94298656 -483.875 1279.1328125 C-484.88312744 1278.88772949 -484.88312744 1278.88772949 -485.91162109 1278.63769531 C-504.30089821 1274.14521443 -522.31652076 1268.20210872 -539.875 1261.1328125 C-541.05707031 1260.67390625 -542.23914063 1260.215 -543.45703125 1259.7421875 C-572.01695452 1248.6168211 -600.01651731 1234.10668343 -622.640625 1213.17578125 C-624.52450698 1211.45328077 -626.44634631 1209.85164883 -628.4375 1208.2578125 C-633.25371115 1204.15218988 -636.98914919 1199.09514901 -640.875 1194.1328125 C-641.596875 1193.26140625 -642.31875 1192.39 -643.0625 1191.4921875 C-659.26525317 1171.23874604 -669.17935559 1146.80857692 -667.17333984 1120.72119141 C-665.32173256 1104.65675572 -655.86720883 1091.43741092 -644.875 1080.1328125 C-644.26269531 1079.45863281 -643.65039062 1078.78445313 -643.01953125 1078.08984375 C-628.65234841 1062.74238404 -606.86574397 1050.41175458 -587.30078125 1043.046875 C-584.62710248 1042.03940184 -582.00540131 1040.93580416 -579.375 1039.8203125 C-565.39805998 1033.9936086 -551.29401472 1028.75624798 -536.875 1024.1328125 C-536.18132324 1023.90851562 -535.48764648 1023.68421875 -534.77294922 1023.453125 C-526.41250434 1020.75556746 -518.02029805 1018.31908162 -509.51953125 1016.09375 C-500.85944006 1013.81038191 -492.28504159 1011.27920775 -483.75 1008.5703125 C-478.30860175 1006.84655986 -472.85639737 1005.33990372 -467.30859375 1004 C-453.64260756 1000.54852226 -440.13569051 996.46297936 -426.83105469 991.81347656 C-425.08242203 991.20499081 -423.32677884 990.61673878 -421.5703125 990.03125 C-406.69502688 984.77001666 -392.70645235 976.23275881 -379.875 967.1328125 C-378.74879957 966.34490677 -377.62249227 965.55715376 -376.49609375 964.76953125 C-356.50707018 950.71289432 -335.47044617 935.14989002 -319.73046875 916.30078125 C-317.77952673 914.02125952 -315.73718654 911.84099665 -313.67822266 909.65917969 C-298.15452667 893.15457742 -284.72483644 874.49364341 -273.05908203 855.09521484 C-271.89602542 853.16765834 -270.71300707 851.25355459 -269.52734375 849.33984375 C-259.05181218 832.21209246 -250.03738934 813.87445431 -242.25 795.375 C-241.00640966 792.4426705 -239.67830812 789.57204585 -238.3125 786.6953125 C-235.888484 781.41669871 -233.97837503 775.98905891 -232.10522461 770.49633789 C-230.80431028 766.69300481 -229.41682819 762.95063903 -227.90234375 759.2265625 C-225.90065185 754.27665694 -224.16393096 749.26742306 -222.5 744.1953125 C-222.20037354 743.28563721 -221.90074707 742.37596191 -221.59204102 741.4387207 C-220.977933 739.56881453 -220.36569712 737.69829244 -219.75537109 735.82714844 C-218.94458693 733.34578015 -218.12330131 730.86812027 -217.30078125 728.390625 C-213.85100893 717.87291693 -211.05880995 707.25352377 -208.4453125 696.5 C-207.38682995 692.15712816 -206.27468539 687.83315539 -205.1171875 683.515625 C-201.28459657 669.20077848 -198.13601037 654.89972098 -195.4765625 640.32373047 C-194.87782973 637.14782246 -194.23016585 633.98630387 -193.5625 630.82421875 C-191.1052371 619.15653493 -189.12922381 607.57815348 -187.86279297 595.71655273 C-187.02956235 587.91952223 -185.72353278 580.29217952 -184.15625 572.60961914 C-181.52074399 559.24398935 -180.58731502 545.77188818 -179.6875 532.1953125 C-179.60095154 530.91622009 -179.51440308 529.63712769 -179.42523193 528.3192749 C-178.05184117 507.5114597 -177.49205141 486.74432553 -177.49938583 465.89255905 C-177.49999155 463.78718116 -177.49747585 461.68182243 -177.49478149 459.57644653 C-177.48758946 444.11792299 -177.93574916 428.85036093 -179.62843323 413.48017883 C-180.04920202 409.47437348 -180.36030667 405.45962751 -180.6875 401.4453125 C-181.61818965 390.99438772 -182.76036988 380.56312979 -183.92929077 370.13656616 C-184.14003248 368.24490412 -184.34719379 366.35283912 -184.55044556 364.46035767 C-185.68071256 353.98337007 -187.20614169 343.94895447 -189.94287109 333.76904297 C-191.35025818 328.27883259 -192.18731758 322.73678782 -193 317.1328125 C-194.00443602 310.35079406 -195.14649923 303.76689644 -196.875 297.1328125 C-197.33078419 294.71952744 -197.76788996 292.30264957 -198.1875 289.8828125 C-199.29086373 283.74616729 -200.68580214 277.72985172 -202.25 271.6953125 C-204.23329383 264.03200867 -205.87485482 256.34212762 -207.375 248.5703125 C-208.83537747 241.00912191 -210.45535669 233.55793391 -212.5 226.1328125 C-214.63603315 218.36407798 -216.14589777 210.63020839 -217.43725586 202.67919922 C-218.0162492 199.31115655 -218.65643572 195.95517469 -219.29296875 192.59765625 C-223.163853 172.04648323 -226.36919371 151.95848938 -226.3125 131.0078125 C-226.31242447 129.90693298 -226.31242447 129.90693298 -226.31234741 128.78381348 C-226.26458022 113.82405629 -225.02792362 99.29886384 -219.875 85.1328125 C-219.51535156 84.12605469 -219.15570312 83.11929688 -218.78515625 82.08203125 C-209.6209332 58.29207849 -190.70009811 42.76382752 -168.875 31.1328125 C-168.13636719 30.73449219 -167.39773438 30.33617187 -166.63671875 29.92578125 C-143.78955731 18.05282572 -118.07419646 12.44970271 -92.875 8.1328125 C-91.49846151 7.87626524 -90.12216664 7.61840801 -88.74609375 7.359375 C-78.08916613 5.40620702 -67.45402448 4.42359219 -56.65625 3.6015625 C-50.48082499 3.12341279 -44.35489171 2.40432922 -38.21484375 1.59765625 C-25.4949485 0.12592879 -12.785883 -0.01738496 0 0 Z " 
fill="white"
stroke="black"
stroke-width="4"
stroke-linejoin="round"
stroke-linecap="round"
transform="translate(797.875,213.8671875)"/>
<defs>
  <clipPath id="sockClip">
    <path d="M0 0 C1.78108737 -0.00067609 3.56217466 -0.00164863 5.34326172 -0.00289917 C9.05111583 -0.00436182 12.75894562 -0.00226819 16.46679688 0.00244141 C21.17648251 0.00813779 25.88611112 0.00485103 30.59579468 -0.00113106 C34.26619889 -0.00477567 37.93658998 -0.00358033 41.60699463 -0.00100327 C43.34181729 -0.00034474 45.07664122 -0.00112398 46.8114624 -0.00348282 C56.23805408 -0.01349303 65.56505384 0.1934133 74.96884155 0.89923096 C78.5847743 1.16683956 82.17627666 1.30109795 85.80078125 1.37890625 C87.06083984 1.41177734 88.32089844 1.44464844 89.61914062 1.47851562 C92.18414338 1.54018065 94.74925636 1.59740671 97.31445312 1.65039062 C111.97904896 2.04999144 124.74618401 4.34893516 136.125 14.1328125 C136.72054687 14.61105469 137.31609375 15.08929688 137.9296875 15.58203125 C151.76983274 27.79211494 154.60965454 48.8433123 156.125 66.1328125 C156.41781465 71.32519055 156.56854328 76.51885317 156.69335938 81.7175293 C156.72315211 82.87585268 156.72315211 82.87585268 156.75354671 84.05757654 C157.36027088 108.12621014 157.33223046 132.20577666 157.39032075 156.28051116 C157.40768646 163.36619332 157.43102041 170.45185289 157.45473462 177.5375162 C157.49716659 190.23862514 157.5363363 202.93974159 157.57275391 215.64086914 C157.57491671 216.3947785 157.57707951 217.14868786 157.57930785 217.92544296 C157.59242361 222.50307053 157.60546492 227.08069831 157.61848927 231.65832615 C157.63793274 238.48811954 157.65750203 245.31791255 157.67724609 252.14770508 C157.67940496 252.89488856 157.68156383 253.64207205 157.68378812 254.41189746 C157.72042657 267.05592785 157.76041372 279.6999458 157.80254889 292.34395903 C157.82585282 299.37967455 157.84750647 306.4153869 157.86463928 313.45112038 C157.93335408 341.46512096 158.090375 369.47302132 158.58398438 397.4831543 C158.60342071 398.61546844 158.62285704 399.74778259 158.64288235 400.91440928 C159.13746654 429.08676141 160.08913263 457.28567954 162.37915039 485.37524414 C162.86814169 491.39892046 163.26084452 497.41735257 163.5546875 503.453125 C164.38677104 520.35230923 165.78673419 536.93113184 168.12109375 553.69921875 C169.12823932 560.95388819 169.89280076 568.22111895 170.625 575.5078125 C174.47338275 612.25217102 183.03149502 647.59150143 197.15014648 681.76000977 C199.23939403 686.84525818 201.25940617 691.95869555 203.29296875 697.06640625 C206.23688472 704.2964834 209.53659745 711.33618353 212.91479492 718.37084961 C215.09594208 722.91834012 217.16579663 727.48539986 219.125 732.1328125 C219.74659049 733.53016749 220.3711277 734.92621949 221 736.3203125 C222.54383277 739.77500243 224.00388294 743.25602658 225.4375 746.7578125 C227.32435017 751.31386534 229.33548675 755.79780175 231.4375 760.2578125 C239.04134667 776.42539738 246.53152922 792.64506079 251.421875 809.875 C252.14721919 812.20416079 253.04204467 814.38998058 254 816.6328125 C260.4253025 832.52440037 262.88390584 849.23504989 265.125 866.1328125 C265.23030029 866.87950195 265.33560059 867.62619141 265.4440918 868.39550781 C270.84950105 910.33251519 259.72423417 955.25598165 234.125 989.1328125 C231.21847964 992.88467631 228.21696928 996.53257429 225.125 1000.1328125 C224.02671875 1001.41671875 224.02671875 1001.41671875 222.90625 1002.7265625 C199.88140724 1028.99434086 168.06202836 1043.44854931 135.125 1053.1328125 C133.77727562 1053.5375336 132.42961245 1053.94245865 131.08203125 1054.34765625 C118.69777187 1057.99008548 106.24304107 1060.55045571 93.5 1062.5703125 C83.36250425 1064.20842067 73.30095874 1066.03997797 63.26953125 1068.23828125 C59.3398621 1069.09911786 55.3949644 1069.84673116 51.4375 1070.5703125 C-13.10678679 1082.59200735 -70.71190603 1108.02106293 -124.875 1145.1328125 C-126.17184462 1146.01566963 -127.46872191 1146.89847877 -128.765625 1147.78125 C-135.62490502 1152.46269851 -142.42808274 1157.20357597 -149.12109375 1162.12109375 C-151.66803255 1163.98162351 -154.23376617 1165.81337067 -156.80688477 1167.63745117 C-163.13532305 1172.12658532 -169.37152524 1176.72452984 -175.56787109 1181.39404297 C-182.34897691 1186.5012804 -189.18316455 1191.53491315 -196.0234375 1196.5625 C-199.22223543 1198.91376416 -202.41466735 1201.27325494 -205.6015625 1203.640625 C-227.98945139 1220.25391529 -250.8129793 1236.12949805 -274.99121094 1250.04248047 C-276.78625589 1251.08144765 -278.57061939 1252.13629852 -280.3515625 1253.19921875 C-281.39054687 1253.81667969 -282.42953125 1254.43414063 -283.5 1255.0703125 C-284.81871094 1255.85728516 -284.81871094 1255.85728516 -286.1640625 1256.66015625 C-289.31810989 1258.37352205 -292.56543171 1259.75745462 -295.875 1261.1328125 C-297.49426289 1261.82632218 -299.11269495 1262.52177373 -300.73046875 1263.21875 C-304.38625403 1264.78931546 -308.04409093 1266.35498808 -311.703125 1267.91796875 C-314.61584652 1269.16231438 -317.52203386 1270.41713685 -320.421875 1271.69140625 C-326.68977665 1274.41032034 -332.98486058 1276.43819491 -339.578125 1278.23046875 C-342.33245886 1278.98432079 -345.03442619 1279.81594044 -347.75 1280.6953125 C-353.89998082 1282.55343478 -360.2303541 1283.68529523 -366.56225586 1284.73608398 C-368.17781563 1285.01321738 -369.78800952 1285.32270927 -371.39282227 1285.65649414 C-382.10676779 1287.66777309 -392.88938689 1287.46940245 -403.75415039 1287.44848633 C-407.1417753 1287.44535477 -410.52849992 1287.46874474 -413.91601562 1287.49414062 C-428.78772309 1287.53622468 -443.17279651 1286.31754931 -457.875 1284.1328125 C-459.23535579 1283.94228947 -460.59592421 1283.75327272 -461.95678711 1283.56640625 C-469.37468972 1282.53078051 -476.61069278 1280.94298656 -483.875 1279.1328125 C-484.88312744 1278.88772949 -484.88312744 1278.88772949 -485.91162109 1278.63769531 C-504.30089821 1274.14521443 -522.31652076 1268.20210872 -539.875 1261.1328125 C-541.05707031 1260.67390625 -542.23914063 1260.215 -543.45703125 1259.7421875 C-572.01695452 1248.6168211 -600.01651731 1234.10668343 -622.640625 1213.17578125 C-624.52450698 1211.45328077 -626.44634631 1209.85164883 -628.4375 1208.2578125 C-633.25371115 1204.15218988 -636.98914919 1199.09514901 -640.875 1194.1328125 C-641.596875 1193.26140625 -642.31875 1192.39 -643.0625 1191.4921875 C-659.26525317 1171.23874604 -669.17935559 1146.80857692 -667.17333984 1120.72119141 C-665.32173256 1104.65675572 -655.86720883 1091.43741092 -644.875 1080.1328125 C-644.26269531 1079.45863281 -643.65039062 1078.78445313 -643.01953125 1078.08984375 C-628.65234841 1062.74238404 -606.86574397 1050.41175458 -587.30078125 1043.046875 C-584.62710248 1042.03940184 -582.00540131 1040.93580416 -579.375 1039.8203125 C-565.39805998 1033.9936086 -551.29401472 1028.75624798 -536.875 1024.1328125 C-536.18132324 1023.90851562 -535.48764648 1023.68421875 -534.77294922 1023.453125 C-526.41250434 1020.75556746 -518.02029805 1018.31908162 -509.51953125 1016.09375 C-500.85944006 1013.81038191 -492.28504159 1011.27920775 -483.75 1008.5703125 C-478.30860175 1006.84655986 -472.85639737 1005.33990372 -467.30859375 1004 C-453.64260756 1000.54852226 -440.13569051 996.46297936 -426.83105469 991.81347656 C-425.08242203 991.20499081 -423.32677884 990.61673878 -421.5703125 990.03125 C-406.69502688 984.77001666 -392.70645235 976.23275881 -379.875 967.1328125 C-378.74879957 966.34490677 -377.62249227 965.55715376 -376.49609375 964.76953125 C-356.50707018 950.71289432 -335.47044617 935.14989002 -319.73046875 916.30078125 C-317.77952673 914.02125952 -315.73718654 911.84099665 -313.67822266 909.65917969 C-298.15452667 893.15457742 -284.72483644 874.49364341 -273.05908203 855.09521484 C-271.89602542 853.16765834 -270.71300707 851.25355459 -269.52734375 849.33984375 C-259.05181218 832.21209246 -250.03738934 813.87445431 -242.25 795.375 C-241.00640966 792.4426705 -239.67830812 789.57204585 -238.3125 786.6953125 C-235.888484 781.41669871 -233.97837503 775.98905891 -232.10522461 770.49633789 C-230.80431028 766.69300481 -229.41682819 762.95063903 -227.90234375 759.2265625 C-225.90065185 754.27665694 -224.16393096 749.26742306 -222.5 744.1953125 C-222.20037354 743.28563721 -221.90074707 742.37596191 -221.59204102 741.4387207 C-220.977933 739.56881453 -220.36569712 737.69829244 -219.75537109 735.82714844 C-218.94458693 733.34578015 -218.12330131 730.86812027 -217.30078125 728.390625 C-213.85100893 717.87291693 -211.05880995 707.25352377 -208.4453125 696.5 C-207.38682995 692.15712816 -206.27468539 687.83315539 -205.1171875 683.515625 C-201.28459657 669.20077848 -198.13601037 654.89972098 -195.4765625 640.32373047 C-194.87782973 637.14782246 -194.23016585 633.98630387 -193.5625 630.82421875 C-191.1052371 619.15653493 -189.12922381 607.57815348 -187.86279297 595.71655273 C-187.02956235 587.91952223 -185.72353278 580.29217952 -184.15625 572.60961914 C-181.52074399 559.24398935 -180.58731502 545.77188818 -179.6875 532.1953125 C-179.60095154 530.91622009 -179.51440308 529.63712769 -179.42523193 528.3192749 C-178.05184117 507.5114597 -177.49205141 486.74432553 -177.49938583 465.89255905 C-177.49999155 463.78718116 -177.49747585 461.68182243 -177.49478149 459.57644653 C-177.48758946 444.11792299 -177.93574916 428.85036093 -179.62843323 413.48017883 C-180.04920202 409.47437348 -180.36030667 405.45962751 -180.6875 401.4453125 C-181.61818965 390.99438772 -182.76036988 380.56312979 -183.92929077 370.13656616 C-184.14003248 368.24490412 -184.34719379 366.35283912 -184.55044556 364.46035767 C-185.68071256 353.98337007 -187.20614169 343.94895447 -189.94287109 333.76904297 C-191.35025818 328.27883259 -192.18731758 322.73678782 -193 317.1328125 C-194.00443602 310.35079406 -195.14649923 303.76689644 -196.875 297.1328125 C-197.33078419 294.71952744 -197.76788996 292.30264957 -198.1875 289.8828125 C-199.29086373 283.74616729 -200.68580214 277.72985172 -202.25 271.6953125 C-204.23329383 264.03200867 -205.87485482 256.34212762 -207.375 248.5703125 C-208.83537747 241.00912191 -210.45535669 233.55793391 -212.5 226.1328125 C-214.63603315 218.36407798 -216.14589777 210.63020839 -217.43725586 202.67919922 C-218.0162492 199.31115655 -218.65643572 195.95517469 -219.29296875 192.59765625 C-223.163853 172.04648323 -226.36919371 151.95848938 -226.3125 131.0078125 C-226.31242447 129.90693298 -226.31242447 129.90693298 -226.31234741 128.78381348 C-226.26458022 113.82405629 -225.02792362 99.29886384 -219.875 85.1328125 C-219.51535156 84.12605469 -219.15570312 83.11929688 -218.78515625 82.08203125 C-209.6209332 58.29207849 -190.70009811 42.76382752 -168.875 31.1328125 C-168.13636719 30.73449219 -167.39773438 30.33617187 -166.63671875 29.92578125 C-143.78955731 18.05282572 -118.07419646 12.44970271 -92.875 8.1328125 C-91.49846151 7.87626524 -90.12216664 7.61840801 -88.74609375 7.359375 C-78.08916613 5.40620702 -67.45402448 4.42359219 -56.65625 3.6015625 C-50.48082499 3.12341279 -44.35489171 2.40432922 -38.21484375 1.59765625 C-25.4949485 0.12592879 -12.785883 -0.01738496 0 0 Z " 
    />
  </clipPath>
</defs>
</svg>
